<?xml version="1.0" standalone="no"?>
<!DOCTYPE svg PUBLIC "-//W3C//DTD SVG 20010904//EN"
 "http://www.w3.org/TR/2001/REC-SVG-20010904/DTD/svg10.dtd">
<svg version="1.0" xmlns="http://www.w3.org/2000/svg"
 width="3071.000000pt" height="785.000000pt" viewBox="0 0 3071.000000 785.000000"
 preserveAspectRatio="xMidYMid meet">

<g transform="translate(0.000000,785.000000) scale(0.100000,-0.100000)"
fill="#000000" stroke="none">
<path d="M16470 7664 c-19 -2 -80 -9 -135 -14 -527 -55 -1115 -270 -1564 -573
-213 -143 -343 -248 -515 -416 -326 -320 -542 -613 -735 -999 -200 -398 -303
-745 -373 -1252 -20 -148 -17 -710 5 -875 60 -443 170 -813 355 -1191 248
-504 596 -935 1036 -1283 112 -89 371 -258 506 -331 396 -214 791 -340 1275
-407 159 -21 619 -24 820 -4 701 68 1324 292 1945 699 318 209 693 532 977
841 l123 134 0 1424 0 1423 -134 0 -133 0 -6 -33 c-9 -59 -86 -250 -133 -332
-180 -313 -454 -538 -804 -659 -134 -47 -225 -70 -390 -97 -130 -22 -165 -23
-907 -26 l-773 -4 0 -125 0 -124 474 0 474 0 5 -207 c6 -233 14 -282 83 -494
72 -221 223 -498 419 -769 38 -52 109 -151 159 -220 328 -452 341 -617 62
-751 -186 -89 -374 -92 -641 -10 -216 67 -503 239 -784 469 -172 141 -467 434
-652 647 -894 1029 -1604 2364 -1814 3410 -84 420 -85 774 -3 1023 62 187 160
303 322 382 130 64 216 84 318 76 101 -8 185 -35 283 -91 222 -127 347 -254
935 -950 154 -184 435 -469 560 -568 318 -254 597 -376 926 -407 132 -12 344
-1 496 25 758 132 1237 685 1379 1595 35 231 37 878 3 1003 -5 15 -19 17 -123
17 l-118 0 -7 -61 c-3 -34 -6 -87 -6 -118 0 -79 -44 -262 -77 -323 -37 -70
-126 -159 -190 -191 -118 -60 -306 -89 -443 -68 -162 25 -280 78 -690 306
-434 241 -662 346 -922 421 -220 63 -314 76 -588 79 -135 2 -261 1 -280 -1z"/>
<path d="M23980 7664 c-19 -2 -78 -9 -130 -14 -388 -43 -830 -175 -1182 -351
-325 -163 -642 -388 -902 -639 -349 -338 -620 -732 -825 -1198 -135 -307 -240
-709 -283 -1087 -19 -169 -16 -637 6 -815 132 -1084 707 -2037 1599 -2648 452
-310 984 -508 1577 -589 167 -22 650 -25 800 -5 739 102 1273 320 1832 752
148 115 459 421 582 575 386 483 658 1084 765 1695 42 239 46 298 46 650 0
353 -4 409 -46 650 -204 1158 -929 2139 -1967 2659 -337 169 -729 289 -1137
347 -104 15 -646 28 -735 18z m-1131 -704 c296 -31 681 -230 1056 -545 294
-248 517 -475 769 -780 809 -981 1405 -2123 1625 -3115 86 -383 95 -773 27
-1038 -37 -140 -118 -276 -213 -355 -136 -113 -344 -144 -579 -88 -196 48
-467 184 -704 354 -269 193 -721 622 -971 922 -670 805 -1211 1758 -1497 2635
-127 391 -192 697 -214 1005 -27 385 48 680 215 850 91 92 176 136 302 155 73
11 73 11 184 0z"/>
<path d="M160 3990 l0 -3620 1165 0 1165 0 0 1894 c0 1635 2 1895 14 1899 38
15 142 18 222 8 131 -18 299 -78 543 -195 222 -107 405 -176 524 -196 l67 -12
0 -1699 0 -1699 1170 0 1170 0 0 3620 0 3620 -1170 0 -1170 0 0 -1799 0 -1800
-69 20 c-106 29 -203 70 -461 194 -355 171 -452 199 -687 199 l-153 0 0 1593
0 1593 -1165 0 -1165 0 0 -3620z"/>
<path d="M6703 5263 c3 -2601 -1 -2418 68 -2702 179 -729 629 -1313 1340
-1739 129 -77 397 -204 549 -261 765 -283 1667 -340 2365 -150 200 54 312 96
481 180 647 321 1033 859 1138 1589 34 230 36 422 36 2928 l0 2502 -1165 0
-1166 0 4 -2132 3 -2133 26 -115 c85 -370 236 -601 544 -830 43 -33 189 -125
324 -206 294 -177 416 -259 492 -334 150 -150 220 -343 185 -514 -21 -103 -51
-159 -122 -232 -71 -72 -166 -122 -300 -156 -82 -21 -112 -23 -335 -23 -362 1
-583 36 -861 135 -687 245 -1077 845 -1214 1870 -60 454 -65 653 -65 2763 l0
1907 -1165 0 -1165 0 3 -2347z"/>
<path d="M29380 2344 c-424 -85 -739 -360 -860 -751 -119 -385 -16 -796 270
-1083 157 -157 334 -250 559 -296 129 -26 374 -16 495 20 375 112 652 395 753
771 24 90 27 118 27 270 1 156 -2 178 -27 270 -105 382 -396 673 -775 776 -60
16 -114 21 -247 24 -93 2 -181 1 -195 -1z"/>
</g>
</svg>
